<svg width="20" height="21" viewBox="0 0 20 21" fill="none" xmlns="http://www.w3.org/2000/svg">
<path d="M13.2825 10.7857C13.2825 12.5954 11.8065 14.0714 9.99679 14.0714C8.18708 14.0714 6.71108 12.5954 6.71108 10.7857C6.71108 8.976 8.18708 7.5 9.99679 7.5C11.8065 7.5 13.2825 8.976 13.2825 10.7857ZM15.0537 10.7857C15.0537 7.98772 12.7948 5.72879 9.99679 5.72879C7.1988 5.72879 4.93987 7.98772 4.93987 10.7857C4.93987 13.5837 7.1988 15.8426 9.99679 15.8426C12.7948 15.8426 15.0537 13.5837 15.0537 10.7857ZM16.4399 5.52344C16.4399 4.86886 15.9136 4.34263 15.2591 4.34263C14.6045 4.34263 14.0783 4.86886 14.0783 5.52344C14.0783 6.17801 14.6045 6.70424 15.2591 6.70424C15.9136 6.70424 16.4399 6.17801 16.4399 5.52344ZM9.99679 2.69978C11.4343 2.69978 14.5146 2.58426 15.811 3.09765C16.2602 3.27734 16.5939 3.49553 16.9404 3.84208C17.287 4.18862 17.5052 4.52232 17.6848 4.97154C18.1982 6.26786 18.0827 9.34821 18.0827 10.7857C18.0827 12.2232 18.1982 15.3036 17.6848 16.5999C17.5052 17.0491 17.287 17.3828 16.9404 17.7294C16.5939 18.0759 16.2602 18.2941 15.811 18.4738C14.5146 18.9872 11.4343 18.8717 9.99679 18.8717C8.55929 18.8717 5.47893 18.9872 4.18262 18.4738C3.7334 18.2941 3.39969 18.0759 3.05315 17.7294C2.70661 17.3828 2.48842 17.0491 2.30873 16.5999C1.79534 15.3036 1.91085 12.2232 1.91085 10.7857C1.91085 9.34821 1.79534 6.26786 2.30873 4.97154C2.48842 4.52232 2.70661 4.18862 3.05315 3.84208C3.39969 3.49553 3.7334 3.27734 4.18262 3.09765C5.47893 2.58426 8.55929 2.69978 9.99679 2.69978ZM19.8539 10.7857C19.8539 9.42522 19.8668 8.07757 19.7898 6.71708C19.7128 5.13839 19.3534 3.7394 18.1982 2.58426C17.0431 1.42913 15.6441 1.06975 14.0654 0.992745C12.7049 0.915736 11.3573 0.92857 9.99679 0.92857C8.6363 0.92857 7.28864 0.915736 5.92815 0.992745C4.34947 1.06975 2.95047 1.42913 1.79534 2.58426C0.640206 3.7394 0.280831 5.13839 0.203823 6.71708C0.126814 8.07757 0.139648 9.42522 0.139648 10.7857C0.139648 12.1462 0.126814 13.4939 0.203823 14.8544C0.280831 16.433 0.640206 17.832 1.79534 18.9872C2.95047 20.1423 4.34947 20.5017 5.92815 20.5787C7.28864 20.6557 8.6363 20.6429 9.99679 20.6429C11.3573 20.6429 12.7049 20.6557 14.0654 20.5787C15.6441 20.5017 17.0431 20.1423 18.1982 18.9872C19.3534 17.832 19.7128 16.433 19.7898 14.8544C19.8668 13.4939 19.8539 12.1462 19.8539 10.7857Z" fill="#FFFCFC"/>
</svg>
