<svg width="17" height="17" viewBox="0 0 17 17" fill="none" xmlns="http://www.w3.org/2000/svg">
<path d="M11.5624 10.6562L12.2856 14.885L8.49874 12.8862L4.70187 14.885L5.43513 10.6562L2.36147 7.67299L6.60031 7.05022L8.49874 3.21317L10.3972 7.05022L14.636 7.67299L11.5624 10.6562ZM16.8559 7.07031C16.8559 6.76897 16.5345 6.64844 16.2934 6.60826L11.251 5.875L8.99093 1.30469C8.90053 1.11384 8.72977 0.892857 8.49874 0.892857C8.26772 0.892857 8.09696 1.11384 8.00656 1.30469L5.74651 5.875L0.704102 6.60826C0.452986 6.64844 0.141602 6.76897 0.141602 7.07031C0.141602 7.25112 0.272182 7.42187 0.392718 7.55246L4.04897 11.1083L3.18513 16.1306C3.17508 16.2009 3.16504 16.2612 3.16504 16.3315C3.16504 16.5926 3.29562 16.8337 3.58691 16.8337C3.72754 16.8337 3.85812 16.7835 3.9887 16.7132L8.49874 14.3426L13.0088 16.7132C13.1293 16.7835 13.27 16.8337 13.4106 16.8337C13.7019 16.8337 13.8224 16.6027 13.8224 16.3315C13.8224 16.2612 13.8224 16.2009 13.8124 16.1306L12.9485 11.1083L16.5947 7.55246C16.7253 7.42187 16.8559 7.25112 16.8559 7.07031Z" fill="black"/>
</svg>
