<svg width="17" height="15" viewBox="0 0 17 15" fill="none" xmlns="http://www.w3.org/2000/svg">
<path d="M6.57017 13C6.57017 12.2969 5.98758 11.7143 5.28446 11.7143C4.58133 11.7143 3.99874 12.2969 3.99874 13C3.99874 13.7031 4.58133 14.2857 5.28446 14.2857C5.98758 14.2857 6.57017 13.7031 6.57017 13ZM15.5702 13C15.5702 12.2969 14.9876 11.7143 14.2845 11.7143C13.5813 11.7143 12.9987 12.2969 12.9987 13C12.9987 13.7031 13.5813 14.2857 14.2845 14.2857C14.9876 14.2857 15.5702 13.7031 15.5702 13ZM16.8559 2.07143C16.8559 1.71987 16.5646 1.42857 16.213 1.42857H4.14941C4.04897 0.946428 4.02888 0.142857 3.35589 0.142857H0.784459C0.432896 0.142857 0.141602 0.434151 0.141602 0.785714C0.141602 1.13728 0.432896 1.42857 0.784459 1.42857H2.83357L4.61147 9.69531C4.45075 10.0067 3.99874 10.76 3.99874 11.0714C3.99874 11.423 4.29004 11.7143 4.6416 11.7143H14.9273C15.2789 11.7143 15.5702 11.423 15.5702 11.0714C15.5702 10.7199 15.2789 10.4286 14.9273 10.4286H5.68624C5.78669 10.2277 5.92732 10.0167 5.92732 9.78571C5.92732 9.54464 5.84696 9.31362 5.79674 9.08259L16.2833 7.85714C16.6048 7.81696 16.8559 7.53571 16.8559 7.21429V2.07143Z" fill="#FFFCFC"/>
</svg>
