<svg width="13" height="13" viewBox="0 0 13 13" fill="none" xmlns="http://www.w3.org/2000/svg">
<path d="M8.35714 5.17411C8.35714 6.96596 6.899 8.42411 5.10714 8.42411C3.31529 8.42411 1.85714 6.96596 1.85714 5.17411C1.85714 3.38225 3.31529 1.92411 5.10714 1.92411C6.899 1.92411 8.35714 3.38225 8.35714 5.17411ZM12.0714 11.2098C12.0714 10.9632 11.9699 10.7238 11.803 10.5569L9.31473 8.06864C9.90234 7.21987 10.2143 6.20424 10.2143 5.17411C10.2143 2.35212 7.92913 0.0669637 5.10714 0.0669637C2.28516 0.0669637 0 2.35212 0 5.17411C0 7.99609 2.28516 10.2812 5.10714 10.2812C6.13728 10.2812 7.1529 9.96931 8.00167 9.3817L10.49 11.8627C10.6568 12.0368 10.8962 12.1384 11.1429 12.1384C11.6507 12.1384 12.0714 11.7176 12.0714 11.2098Z" fill="#FFFCFC"/>
</svg>
